<svg width="32" height="32" viewBox="0 0 32 32" fill="none" xmlns="http://www.w3.org/2000/svg">
  <!-- Background rounded square -->
  <rect x="2" y="2" width="28" height="28" rx="6" fill="#E0F2FE" opacity="0.1"/>
  
  <!-- Wind icon -->
  <path d="M9 6C8.44772 6 8 6.44772 8 7C8 7.55228 8.44772 8 9 8H15C15.5523 8 16 7.55228 16 7C16 6.44772 15.5523 6 15 6H9Z" fill="#0EA5E9"/>
  <path d="M6 12C5.44772 12 5 12.4477 5 13C5 13.5523 5.44772 14 6 14H18C18.5523 14 19 13.5523 19 13C19 12.4477 18.5523 12 18 12H6Z" fill="#0EA5E9"/>
  <path d="M11 18C10.4477 18 10 18.4477 10 19C10 19.5523 10.4477 20 11 20H20C20.5523 20 21 19.5523 21 19C21 18.4477 20.5523 18 20 18H11Z" fill="#0EA5E9"/>
  <path d="M8 24C7.44772 24 7 24.4477 7 25C7 25.5523 7.44772 26 8 26H16C16.5523 26 17 25.5523 17 25C17 24.4477 16.5523 24 16 24H8Z" fill="#0EA5E9"/>
</svg>
